<?xml version="1.0" standalone="no"?>
<!DOCTYPE svg PUBLIC "-//W3C//DTD SVG 20010904//EN"
 "http://www.w3.org/TR/2001/REC-SVG-20010904/DTD/svg10.dtd">
<svg version="1.0" xmlns="http://www.w3.org/2000/svg"
 width="166.000000pt" height="60.000000pt" viewBox="0 0 166.000000 60.000000"
 preserveAspectRatio="xMidYMid meet">
<metadata>
Created by potrace 1.16, written by Peter Selinger 2001-2019
</metadata>
<g transform="translate(0.000000,60.000000) scale(0.100000,-0.100000)"
fill="#000000" stroke="none">
<path d="M545 360 c-10 -17 -75 -144 -75 -147 0 -2 14 -3 30 -3 18 0 30 5 30
13 0 7 9 13 20 13 11 0 20 -6 20 -13 0 -21 68 -17 72 4 3 16 4 16 20 0 10 -10
33 -17 57 -17 36 0 41 3 42 23 l0 22 9 -22 c10 -25 60 -33 60 -10 0 9 2 9 8 0
5 -8 32 -12 74 -12 67 1 67 1 74 32 l8 32 5 -30 c5 -25 11 -31 38 -33 30 -3
32 -1 38 35 4 21 11 51 16 67 14 45 11 56 -15 56 -19 0 -26 -7 -34 -37 -6 -24
-10 -30 -11 -16 -2 40 -12 53 -42 53 -26 0 -29 -4 -30 -32 -1 -22 -3 -26 -6
-13 -13 52 -68 62 -102 19 -15 -19 -21 -22 -21 -11 0 20 -30 37 -64 37 -19 0
-26 -6 -31 -30 -9 -39 -25 -39 -25 1 0 27 -3 30 -27 27 -22 -2 -33 -13 -50
-47 l-22 -44 -3 44 c-3 39 -6 44 -30 47 -14 2 -29 -2 -33 -8z"/>
<path d="M408 175 c-9 -19 -7 -29 6 -50 14 -22 14 -25 1 -25 -9 0 -15 -9 -15
-25 0 -22 4 -25 33 -25 18 0 38 5 45 12 8 8 15 8 24 1 7 -6 43 -11 80 -11 61
0 67 1 70 21 2 12 12 23 23 26 11 2 23 8 27 15 4 6 8 -6 8 -26 0 -34 3 -38 25
-38 21 0 25 5 25 33 1 17 7 43 15 57 14 24 14 22 15 -32 0 -52 2 -58 21 -58
12 0 28 8 35 17 13 17 13 17 14 1 0 -15 9 -18 55 -18 30 0 55 5 55 10 0 6 7
10 15 10 8 0 15 -4 15 -10 0 -15 87 -12 94 3 5 10 7 10 12 0 4 -9 28 -13 70
-13 61 0 64 1 64 24 0 18 -7 26 -22 29 -20 4 -19 4 5 6 20 1 27 6 27 20 0 11
-8 22 -17 24 -14 4 -12 5 5 6 15 1 22 7 22 21 0 17 -7 20 -45 20 -28 0 -45 -4
-45 -12 0 -9 -3 -9 -12 0 -7 7 -29 12 -49 12 -32 0 -39 -4 -47 -27 l-10 -28
-1 28 c-1 26 -2 27 -61 27 -46 0 -61 -4 -69 -17 -10 -17 -10 -17 -11 0 0 12
-8 17 -25 17 -20 0 -29 -8 -40 -32 l-14 -33 -1 33 0 32 -105 0 c-71 0 -105 -4
-105 -11 0 -8 -4 -8 -13 -1 -7 6 -52 11 -100 11 -83 0 -88 -1 -99 -24z"/>
</g>
</svg>
